<?xml version="1.0" encoding="utf-8"?>
<!-- Generator: Adobe Illustrator 22.1.0, SVG Export Plug-In . SVG Version: 6.00 Build 0)  -->
<svg version="1.1" id="Layer_1" xmlns="http://www.w3.org/2000/svg" xmlns:xlink="http://www.w3.org/1999/xlink" x="0px" y="0px"
	 viewBox="0 0 164.1 74" style="enable-background:new 0 0 164.1 74;" xml:space="preserve">
<style type="text/css">
	.st0{fill:#9F9F9F;}
	.st1{fill:#5D78FF;}
</style>
<text transform="matrix(1 0 0 1 -64.6939 70.6667)" style="fill:#FFFFFF; font-family:'ArialMT'; font-size:10.9994px;"> </text>
<g>
	<path class="st0" d="M19.5,61.6c-3.6-2.3-6.4-5.6-8.4-9.8c-2-4.2-3-9.2-3-15c0-5.7,1-10.7,3-15c2-4.2,4.8-7.5,8.5-9.8
		c3.7-2.3,8-3.4,13-3.4c4,0,7.6,0.8,10.7,2.4c3.1,1.6,5.4,3.8,6.9,6.6l-4.9,4.5c-2.8-4.3-7-6.5-12.6-6.5c-5.1,0-9.1,1.8-11.8,5.5
		c-2.8,3.7-4.2,8.9-4.2,15.7c0,6.7,1.4,12,4.1,15.7c2.7,3.7,6.6,5.6,11.5,5.6c3,0,5.6-0.5,7.8-1.6c2.1-1.1,3.9-2.7,5.3-4.9l4.9,4.5
		c-1.5,2.8-3.8,5-6.9,6.6c-3.1,1.6-6.8,2.4-10.9,2.4C27.4,65.1,23.1,63.9,19.5,61.6z"/>
	<path class="st1" d="M109.3,9.4v54.9h-8.4V25.8L86.8,64.3h-6L66.7,25.8v38.5h-8.4V9.4h9.5l16,44.7l16-44.7H109.3z"/>
	<path class="st0" d="M125.7,62.7c-3.2-1.6-5.7-3.8-7.7-6.6l5.1-5c1.6,2.1,3.7,3.8,6.2,5.1c2.5,1.3,4.9,1.9,7.2,1.9
		c2.9,0,5.2-0.7,6.9-2.1c1.8-1.4,2.6-3.3,2.6-5.6c0-1.6-0.3-2.9-0.9-4s-1.7-2.2-3.2-3.3c-1.5-1.1-3.7-2.3-6.7-3.8
		c-5.6-2.8-9.6-5.4-11.9-7.9c-2.3-2.5-3.4-5.4-3.4-8.8c0-2.8,0.7-5.2,2.1-7.4c1.4-2.1,3.4-3.8,6-4.9c2.6-1.1,5.6-1.7,9-1.7
		c3.7,0,7,0.8,9.9,2.3c3,1.5,5.1,3.6,6.4,6.2l-5.5,4.1c-1.3-1.8-2.8-3.1-4.7-4.1c-1.9-1-3.9-1.5-6-1.5c-2.7,0-4.9,0.6-6.4,1.8
		c-1.6,1.2-2.4,2.9-2.4,5.1c0,1.3,0.3,2.4,1,3.4c0.7,0.9,1.8,1.9,3.5,3c1.7,1.1,4.3,2.5,7.9,4.2c5,2.4,8.5,4.9,10.5,7.4
		c2.1,2.5,3.1,5.6,3.1,9.3c0,3-0.8,5.7-2.3,8c-1.5,2.3-3.7,4.1-6.5,5.4c-2.8,1.3-6,1.9-9.7,1.9C132.4,65.1,128.9,64.3,125.7,62.7z"
		/>
</g>
</svg>
